<svg xmlns="http://www.w3.org/2000/svg" width="101.788" height="65.688" viewBox="0 0 101.788 65.688"><defs><style>.a{fill:#19b5f1;stroke:#fff;stroke-width:2px;}</style></defs><g transform="translate(1.001 -89.336)"><path class="a" d="M357.1,146.7a11.816,11.816,0,1,0-11.816-11.816A11.83,11.83,0,0,0,357.1,146.7Zm0-17.638a5.822,5.822,0,1,1-5.822,5.822A5.829,5.829,0,0,1,357.1,129.066Z" transform="translate(-276.293 -26.195)"/><path class="a" d="M99.787,285.33a18.982,18.982,0,0,0-33.633-12.07,24.677,24.677,0,0,0-32.522,0A18.982,18.982,0,0,0,0,285.33v3H25.422a24.834,24.834,0,0,0-.255,3.544v3H74.619v-3a24.832,24.832,0,0,0-.255-3.544H99.787Zm-93.445-3a12.987,12.987,0,0,1,23.225-4.524,24.7,24.7,0,0,0-2.486,4.524ZM31.4,288.874a18.734,18.734,0,0,1,36.985,0Zm41.3-6.541a24.723,24.723,0,0,0-2.486-4.524,12.987,12.987,0,0,1,23.225,4.524Z" transform="translate(0 -140.844)"/><path class="a" d="M47.678,146.705a11.816,11.816,0,1,0-11.816-11.816A11.83,11.83,0,0,0,47.678,146.705Zm0-17.638a5.822,5.822,0,1,1-5.822,5.822A5.829,5.829,0,0,1,47.678,129.067Z" transform="translate(-28.697 -26.196)"/><path class="a" d="M189.7,120.307a14.986,14.986,0,1,0-14.986-14.986A15,15,0,0,0,189.7,120.307Zm0-23.977a8.991,8.991,0,1,1-8.991,8.991A9,9,0,0,1,189.7,96.33Z" transform="translate(-139.803)"/></g></svg>