<svg xmlns="http://www.w3.org/2000/svg" width="14.977" height="14.977" viewBox="0 0 14.977 14.977"><defs><style>.a{fill:#929496;}</style></defs><path class="a" d="M14.509,264.667a.468.468,0,0,0-.468.468v3.276H.936v-3.276a.468.468,0,0,0-.936,0v3.744a.468.468,0,0,0,.468.468H14.509a.468.468,0,0,0,.468-.468v-3.744A.468.468,0,0,0,14.509,264.667Z" transform="translate(0 -254.37)"/><path class="a" d="M99.364,11.1a.479.479,0,0,0,.669,0l3.276-3.229a.465.465,0,0,0,0-.662.475.475,0,0,0-.668,0l-2.469,2.434V.468a.473.473,0,0,0-.945,0v9.17L96.757,7.2a.475.475,0,0,0-.668,0,.464.464,0,0,0,0,.662Z" transform="translate(-92.217)"/></svg>