<svg xmlns="http://www.w3.org/2000/svg" width="49.818" height="43.441" viewBox="0 0 49.818 43.441"><defs><style>.a{fill:#19b5f1;}</style></defs><g transform="translate(-259 -645.553)"><g transform="translate(259 645.553)"><path class="a" d="M121.734,23.016l3.273-2.285a11.992,11.992,0,0,0,5.012-9.854V3H121.7V23.016Z" transform="translate(-80.202 -3)"/><path class="a" d="M97.4,85.125h8.32V61.7l-3.342,2.353a12.035,12.035,0,0,0-4.978,9.82Z" transform="translate(-64.188 -41.684)"/><path class="a" d="M73.1,24.721l3.342-2.387a11.941,11.941,0,0,0,4.944-9.786V3H73.1Z" transform="translate(-48.174 -3)"/><path class="a" d="M48.7,88.421h8.32V66.7l-3.342,2.353a12.035,12.035,0,0,0-4.978,9.82Z" transform="translate(-32.094 -44.979)"/><path class="a" d="M24.4,26.425l3.308-2.319a11.992,11.992,0,0,0,5.012-9.854V3H24.4Z" transform="translate(-16.08 -3)"/><path class="a" d="M0,91.716H8.32V71.7L4.978,74.053A12.1,12.1,0,0,0,0,83.907Z" transform="translate(0 -48.275)"/></g></g></svg>