<svg xmlns="http://www.w3.org/2000/svg" width="88.399" height="79.142" viewBox="0 0 88.399 79.142"><defs><style>.a{fill:#19b5f1;}</style></defs><g transform="translate(0 -26.81)"><g transform="translate(0 26.81)"><path class="a" d="M229.9,37.7a1.487,1.487,0,0,0,1.487-1.487V28.3a1.487,1.487,0,0,0-2.974,0v7.914A1.487,1.487,0,0,0,229.9,37.7Z" transform="translate(-188.979 -26.81)"/><path class="a" d="M118.364,66.5a1.487,1.487,0,1,0,2.576-1.487l-3.957-6.854a1.487,1.487,0,1,0-2.576,1.487Z" transform="translate(-94.488 -52.129)"/><path class="a" d="M31.344,143.791l6.854,3.957a1.487,1.487,0,1,0,1.487-2.576l-6.854-3.957a1.487,1.487,0,1,0-1.487,2.576Z" transform="translate(-25.317 -121.298)"/><path class="a" d="M10.888,256.715A1.487,1.487,0,0,0,9.4,255.228H1.487a1.487,1.487,0,1,0,0,2.974H9.4A1.487,1.487,0,0,0,10.888,256.715Z" transform="translate(0 -215.79)"/><path class="a" d="M388.02,147.95a1.482,1.482,0,0,0,.742-.2l6.854-3.957a1.487,1.487,0,0,0-1.487-2.576l-6.854,3.957a1.487,1.487,0,0,0,.745,2.775Z" transform="translate(-319.794 -121.3)"/><path class="a" d="M320.446,67.041a1.486,1.486,0,0,0,2.031-.544l3.957-6.854a1.487,1.487,0,0,0-2.576-1.487L319.9,65.009A1.487,1.487,0,0,0,320.446,67.041Z" transform="translate(-264.504 -52.128)"/><path class="a" d="M101.976,400.028H98.757a1.487,1.487,0,1,0,0,2.974h3.219a1.487,1.487,0,1,0,0-2.974Z" transform="translate(-80.476 -335.59)"/><path class="a" d="M160.674,400.028H143.1a1.487,1.487,0,1,0,0,2.974h17.574a4.377,4.377,0,0,1,.179,8.751,1.492,1.492,0,0,0-.179-.012,4.374,4.374,0,0,1-4.369-4.369,1.487,1.487,0,0,0-2.974,0,7.351,7.351,0,0,0,7.093,7.337,1.5,1.5,0,0,0,.25.023,7.352,7.352,0,0,0,0-14.7Z" transform="translate(-117.163 -335.59)"/><path class="a" d="M309.9,400.028H296.147a1.487,1.487,0,1,0,0,2.974H309.9a4.377,4.377,0,0,1,.179,8.751,1.492,1.492,0,0,0-.179-.012,4.374,4.374,0,0,1-4.369-4.369,1.487,1.487,0,0,0-2.974,0,7.351,7.351,0,0,0,7.093,7.337,1.5,1.5,0,0,0,.25.023,7.352,7.352,0,1,0,0-14.7Z" transform="translate(-243.785 -335.59)"/><path class="a" d="M409.022,255.228a1.508,1.508,0,0,0-.252.023,7.351,7.351,0,0,0-7.092,7.337,1.487,1.487,0,0,0,2.974,0,4.375,4.375,0,0,1,4.37-4.369,1.508,1.508,0,0,0,.18-.012,4.377,4.377,0,0,1-.18,8.751H397.905a1.487,1.487,0,1,0,0,2.974h11.117a7.352,7.352,0,0,0,0-14.7Z" transform="translate(-327.974 -215.79)"/><path class="a" d="M394.994,363.246h-3.23a1.487,1.487,0,0,0,0,2.974h3.23a1.487,1.487,0,0,0,0-2.974Z" transform="translate(-322.894 -305.158)"/><path class="a" d="M113.211,154.724a1.487,1.487,0,0,0,0-2.974h-2.53a26.974,26.974,0,1,0-41.606,0H60.656a1.487,1.487,0,0,0,0,2.974h52.555Zm-12.853-2.974a20,20,0,0,0,7.686-25.375,1.487,1.487,0,0,0-2.7,1.245,17.042,17.042,0,1,1-2.588-4.014,1.487,1.487,0,1,0,2.25-1.946A19.99,19.99,0,1,0,79.4,151.749H73.1a24,24,0,1,1,33.546,0Z" transform="translate(-48.953 -93.662)"/></g></g></svg>