<svg xmlns="http://www.w3.org/2000/svg" width="25.088" height="25.087" viewBox="0 0 25.088 25.087"><defs><style>.a{fill:#fff;}</style></defs><g transform="translate(0 -0.002)"><g transform="translate(0 0.002)"><path class="a" d="M12.544,0A12.543,12.543,0,1,0,25.088,12.545,12.543,12.543,0,0,0,12.544,0Zm4.828,18.5a.948.948,0,0,1-.531-.186,12.576,12.576,0,0,0-6.49-1.678,19.629,19.629,0,0,0-3.957.435,3.894,3.894,0,0,1-.618.123.782.782,0,0,1-.793-.789.8.8,0,0,1,.682-.862,20.933,20.933,0,0,1,4.695-.555,13.951,13.951,0,0,1,7.3,1.892.835.835,0,0,1,.5.834A.781.781,0,0,1,17.372,18.5Zm1.367-3.32a1.156,1.156,0,0,1-.629-.218,15.9,15.9,0,0,0-7.965-2.015,15.866,15.866,0,0,0-4.094.525,2.105,2.105,0,0,1-.611.14.983.983,0,0,1-.98-.983,1,1,0,0,1,.78-1.047,17.321,17.321,0,0,1,4.946-.686,17.646,17.646,0,0,1,8.957,2.312,1.025,1.025,0,0,1,.573.991A.976.976,0,0,1,18.738,15.183Zm1.556-3.861a1.188,1.188,0,0,1-.646-.193,19.01,19.01,0,0,0-9.2-2.111,19.364,19.364,0,0,0-5.011.6,2.636,2.636,0,0,1-.643.137,1.176,1.176,0,0,1-1.183-1.2,1.188,1.188,0,0,1,.878-1.2,21.106,21.106,0,0,1,5.954-.772,21.251,21.251,0,0,1,10.389,2.42,1.192,1.192,0,0,1,.646,1.139A1.17,1.17,0,0,1,20.294,11.322Z" transform="translate(0 -0.002)"/></g></g></svg>